<svg width="35" height="36" viewBox="0 0 35 36" fill="none" xmlns="http://www.w3.org/2000/svg">
<g filter="url(#filter0_d_11003_1237)">
<path d="M13 22.375C14.5833 23.2083 16.0833 23.625 17.5 23.625C18.9167 23.625 20.3958 23.2083 21.9375 22.375C23.5208 21.5417 24.7083 20.5208 25.5 19.3125C25.4583 18.1458 24.5208 17.1667 22.6875 16.375C20.8542 15.5833 19.125 15.1875 17.5 15.1875C15.875 15.1875 14.1458 15.5833 12.3125 16.375C10.4792 17.125 9.54167 18.1042 9.5 19.3125C10.2917 20.5208 11.4583 21.5417 13 22.375ZM20.3125 5.875C19.5208 5.08333 18.5833 4.6875 17.5 4.6875C16.4167 4.6875 15.4792 5.08333 14.6875 5.875C13.8958 6.66667 13.5 7.60417 13.5 8.6875C13.5 9.77083 13.8958 10.7083 14.6875 11.5C15.4792 12.2917 16.4167 12.6875 17.5 12.6875C18.5833 12.6875 19.5208 12.2917 20.3125 11.5C21.1042 10.7083 21.5 9.77083 21.5 8.6875C21.5 7.60417 21.1042 6.66667 20.3125 5.875ZM8.0625 4.625C10.6875 2 13.8333 0.6875 17.5 0.6875C21.1667 0.6875 24.2917 2 26.875 4.625C29.5 7.20833 30.8125 10.3333 30.8125 14C30.8125 17.6667 29.5 20.8125 26.875 23.4375C24.2917 26.0208 21.1667 27.3125 17.5 27.3125C13.8333 27.3125 10.6875 26.0208 8.0625 23.4375C5.47917 20.8125 4.1875 17.6667 4.1875 14C4.1875 10.3333 5.47917 7.20833 8.0625 4.625Z" fill="#888888"/>
</g>
<defs>
<filter id="filter0_d_11003_1237" x="0.1875" y="0.6875" width="34.625" height="34.625" filterUnits="userSpaceOnUse" color-interpolation-filters="sRGB">
<feFlood flood-opacity="0" result="BackgroundImageFix"/>
<feColorMatrix in="SourceAlpha" type="matrix" values="0 0 0 0 0 0 0 0 0 0 0 0 0 0 0 0 0 0 127 0" result="hardAlpha"/>
<feOffset dy="4"/>
<feGaussianBlur stdDeviation="2"/>
<feComposite in2="hardAlpha" operator="out"/>
<feColorMatrix type="matrix" values="0 0 0 0 0 0 0 0 0 0 0 0 0 0 0 0 0 0 0.25 0"/>
<feBlend mode="normal" in2="BackgroundImageFix" result="effect1_dropShadow_11003_1237"/>
<feBlend mode="normal" in="SourceGraphic" in2="effect1_dropShadow_11003_1237" result="shape"/>
</filter>
</defs>
</svg>
